<?xml version="1.0" encoding="utf-8"?>
<!-- Generator: Adobe Illustrator 25.0.1, SVG Export Plug-In . SVG Version: 6.00 Build 0)  -->
<svg version="1.1" id="Capa_1" xmlns="http://www.w3.org/2000/svg" xmlns:xlink="http://www.w3.org/1999/xlink" x="0px" y="0px"
	 viewBox="0 0 584.2 584.2" style="enable-background:new 0 0 584.2 584.2;" xml:space="preserve">
<style type="text/css">
	.st0{fill:none;stroke:#FFFFFF;stroke-width:50;stroke-miterlimit:10;}
	.st1{fill:none;stroke:#575756;stroke-width:32;stroke-miterlimit:10;}
</style>
<path class="st0" d="M185.4,100.1h74.7v160h-160v-216 M180.1,152.1l-80-108l-80,108"/>
<path class="st0" d="M100.1,398.7V324h160v160h-216 M152.1,404.1l-108,80l108,80"/>
<path class="st0" d="M398.7,484.1H324v-160h160v216 M404.1,432.1l80,108l80-108"/>
<path class="st0" d="M484.1,185.4v74.7h-160v-160h216 M432.1,180.1l108-80l-108-80"/>
<path class="st1" d="M185.4,100.1h74.7v160h-160v-216 M180.1,152.1l-80-108l-80,108"/>
<path class="st1" d="M100.1,398.7V324h160v160h-216 M152.1,404.1l-108,80l108,80"/>
<path class="st1" d="M398.7,484.1H324v-160h160v216 M404.1,432.1l80,108l80-108"/>
<path class="st1" d="M484.1,185.4v74.7h-160v-160h216 M432.1,180.1l108-80l-108-80"/>
</svg>
